<?xml version="1.0" encoding="iso-8859-1"?>
<!-- Generator: Adobe Illustrator 18.0.0, SVG Export Plug-In . SVG Version: 6.00 Build 0)  -->
<!DOCTYPE svg PUBLIC "-//W3C//DTD SVG 1.1//EN" "http://www.w3.org/Graphics/SVG/1.1/DTD/svg11.dtd">
<svg version="1.1" xmlns="http://www.w3.org/2000/svg" xmlns:xlink="http://www.w3.org/1999/xlink" x="0px" y="0px"
	 viewBox="0 0 60.038 40.012" style="enable-background:new 0 0 60.038 40.012;" xml:space="preserve">
<g id="india">
	<g>
		<g>
			<defs>
				<path id="SVGID_1_" d="M57,40.007H3c-1.657,0-3-1.343-3-3v-34c0-1.657,1.343-3,3-3h54c1.657,0,3,1.343,3,3v34
					C60,38.664,58.657,40.007,57,40.007z"/>
			</defs>
			<clipPath id="SVGID_2_">
				<use xlink:href="#SVGID_1_"  style="overflow:visible;"/>
			</clipPath>
			<g style="clip-path:url(#SVGID_2_);">
				<rect x="0" y="0" style="fill:#F8A34C;" width="60" height="13"/>
				<rect x="0" y="27" style="fill:#58B45B;" width="60" height="13"/>
				<rect x="0" y="13" style="fill:#FFFFFF;" width="60" height="14"/>
				<path style="fill:#205BA8;" d="M30,14.232c-3.185,0-5.768,2.582-5.768,5.768c0,3.185,2.582,5.767,5.768,5.767
					s5.768-2.582,5.768-5.767C35.768,16.815,33.185,14.232,30,14.232z M34.956,20.9c-0.025,0.137-0.064,0.267-0.1,0.4l-2.862-0.945
					l-1.027-0.147c0.011-0.052,0.029-0.102,0.032-0.157l1.02,0.122L35.047,20l-3.028-0.173l-1.02,0.122
					c-0.003-0.055-0.02-0.105-0.032-0.157l1.027-0.147l2.862-0.945c0.036,0.133,0.075,0.263,0.1,0.4
					c-0.129,0.026-0.22,0.143-0.203,0.275c0.017,0.126,0.127,0.208,0.251,0.209c0.012,0.14,0.042,0.274,0.042,0.417
					s-0.03,0.277-0.042,0.417c-0.124,0.001-0.235,0.082-0.251,0.209C34.736,20.758,34.827,20.874,34.956,20.9z M34.55,22.148
					c-0.059,0.125-0.128,0.244-0.197,0.363l-2.518-1.652l-0.946-0.405c0.025-0.048,0.042-0.097,0.059-0.149l0.957,0.384l2.951,0.613
					c-0.036,0.134-0.076,0.266-0.123,0.396c-0.122-0.035-0.254,0.017-0.303,0.137C34.379,21.956,34.436,22.088,34.55,22.148z
					 M31.835,24.429c-0.12,0.05-0.172,0.181-0.137,0.303c-0.13,0.047-0.262,0.087-0.396,0.123l-0.613-2.95l-0.384-0.958
					c0.052-0.017,0.101-0.035,0.149-0.059l0.405,0.946l1.652,2.518c-0.119,0.069-0.238,0.138-0.363,0.197
					C32.088,24.436,31.956,24.379,31.835,24.429z M31.835,15.571c0.121,0.05,0.254-0.007,0.314-0.121
					c0.125,0.059,0.244,0.128,0.363,0.197l-1.652,2.518l-0.405,0.946c-0.048-0.025-0.097-0.042-0.149-0.059l0.384-0.958l0.613-2.95
					c0.134,0.036,0.266,0.076,0.396,0.123C31.663,15.389,31.715,15.521,31.835,15.571z M34.733,18.302
					c0.047,0.13,0.087,0.262,0.123,0.396l-2.951,0.613l-0.957,0.384c-0.017-0.052-0.035-0.101-0.059-0.149l0.946-0.405l2.518-1.652
					c0.069,0.119,0.138,0.238,0.197,0.363c-0.114,0.06-0.171,0.193-0.121,0.314C34.479,18.285,34.611,18.337,34.733,18.302z
					 M33.835,16.754c-0.089,0.088-0.109,0.225-0.031,0.327c0.082,0.107,0.232,0.125,0.342,0.05c0.078,0.112,0.137,0.236,0.206,0.355
					l-2.69,1.355l-0.829,0.621c-0.029-0.045-0.054-0.093-0.09-0.133l0.807-0.634l2.019-2.263l-2.263,2.019l-0.634,0.807
					c-0.04-0.036-0.088-0.06-0.133-0.09l0.621-0.829l1.355-2.69c0.119,0.069,0.243,0.128,0.355,0.206
					c-0.076,0.11-0.057,0.26,0.05,0.342c0.102,0.078,0.239,0.057,0.327-0.031c0.107,0.09,0.224,0.168,0.323,0.266
					C33.667,16.53,33.745,16.648,33.835,16.754z M30.417,14.995c0.001,0.124,0.082,0.235,0.209,0.251
					c0.132,0.017,0.248-0.074,0.275-0.203c0.137,0.025,0.267,0.064,0.4,0.1l-0.945,2.862l-0.147,1.027
					c-0.052-0.011-0.102-0.029-0.157-0.032l0.122-1.02L30,14.953l-0.173,3.028l0.122,1.02c-0.055,0.003-0.105,0.02-0.157,0.032
					l-0.147-1.027L28.7,15.144c0.133-0.036,0.263-0.075,0.4-0.1c0.026,0.128,0.143,0.22,0.275,0.203
					c0.126-0.017,0.208-0.127,0.209-0.251c0.14-0.012,0.274-0.042,0.417-0.042S30.277,14.984,30.417,14.995z M28.165,24.429
					c-0.121-0.05-0.254,0.007-0.314,0.121c-0.125-0.059-0.244-0.128-0.363-0.197l1.652-2.518l0.405-0.946
					c0.048,0.025,0.097,0.042,0.149,0.059l-0.384,0.958l-0.613,2.95c-0.134-0.036-0.266-0.076-0.396-0.123
					C28.337,24.611,28.285,24.479,28.165,24.429z M26.196,22.918c-0.082-0.107-0.232-0.125-0.342-0.05
					c-0.078-0.112-0.137-0.236-0.206-0.355l2.69-1.355l0.829-0.621c0.029,0.045,0.054,0.093,0.09,0.133l-0.807,0.634l-2.019,2.263
					c-0.099-0.099-0.176-0.216-0.266-0.323C26.254,23.157,26.275,23.02,26.196,22.918z M25.571,21.835
					c-0.05-0.12-0.181-0.172-0.303-0.137c-0.047-0.13-0.087-0.262-0.123-0.396l2.95-0.613l0.958-0.384
					c0.017,0.052,0.035,0.101,0.059,0.149l-0.946,0.405l-2.518,1.652c-0.069-0.119-0.138-0.238-0.197-0.363
					C25.564,22.088,25.621,21.956,25.571,21.835z M24.995,20.417c-0.012-0.14-0.042-0.274-0.042-0.417s0.03-0.277,0.042-0.417
					c0.124-0.001,0.235-0.082,0.251-0.209c0.017-0.132-0.074-0.248-0.203-0.275c0.025-0.137,0.064-0.267,0.1-0.4l2.862,0.945
					l1.027,0.147c-0.011,0.052-0.029,0.102-0.032,0.157l-1.02-0.122L24.953,20l3.028,0.173l1.02-0.122
					c0.003,0.055,0.02,0.105,0.032,0.157l-1.027,0.147L25.144,21.3c-0.036-0.133-0.075-0.263-0.1-0.4
					c0.129-0.026,0.22-0.143,0.203-0.275C25.23,20.499,25.119,20.418,24.995,20.417z M25.571,18.165
					c0.05-0.121-0.007-0.254-0.121-0.314c0.059-0.125,0.128-0.244,0.197-0.363l2.518,1.652l0.946,0.405
					c-0.025,0.048-0.042,0.097-0.059,0.149l-0.958-0.384l-2.95-0.613c0.036-0.134,0.076-0.266,0.123-0.396
					C25.389,18.337,25.521,18.285,25.571,18.165z M25.854,17.131c0.11,0.076,0.26,0.057,0.342-0.05
					c0.078-0.102,0.057-0.239-0.031-0.327c0.09-0.107,0.168-0.224,0.266-0.323l2.019,2.263l0.807,0.634
					c-0.036,0.04-0.06,0.088-0.09,0.133l-0.829-0.621l-2.69-1.355C25.717,17.367,25.776,17.243,25.854,17.131z M29.545,19.112
					l-0.405-0.946l-1.652-2.518c0.119-0.069,0.238-0.138,0.363-0.197c0.06,0.114,0.193,0.171,0.314,0.121
					c0.12-0.05,0.172-0.181,0.137-0.303c0.13-0.047,0.262-0.087,0.396-0.123l0.613,2.95l0.384,0.958
					C29.642,19.069,29.593,19.087,29.545,19.112z M26.754,16.165c0.088,0.089,0.225,0.109,0.327,0.031
					c0.107-0.082,0.125-0.232,0.05-0.342c0.112-0.078,0.236-0.137,0.355-0.206l1.355,2.69l0.621,0.829
					c-0.045,0.029-0.093,0.054-0.133,0.09l-0.634-0.807l-2.263-2.019C26.53,16.333,26.648,16.255,26.754,16.165z M26.432,23.568
					l2.263-2.019l0.634-0.807c0.04,0.036,0.088,0.06,0.133,0.09l-0.621,0.829l-1.355,2.69c-0.119-0.069-0.243-0.128-0.355-0.206
					c0.076-0.11,0.057-0.26-0.05-0.342c-0.102-0.078-0.239-0.057-0.327,0.031C26.648,23.744,26.53,23.667,26.432,23.568z
					 M29.583,25.004c-0.001-0.124-0.082-0.235-0.209-0.251c-0.132-0.017-0.248,0.074-0.275,0.203c-0.137-0.025-0.267-0.064-0.4-0.1
					l0.945-2.862l0.147-1.027c0.052,0.011,0.102,0.029,0.157,0.032l-0.122,1.02L30,25.046l0.173-3.028l-0.122-1.02
					c0.055-0.003,0.105-0.02,0.157-0.032l0.147,1.027l0.945,2.862c-0.133,0.036-0.263,0.075-0.4,0.1
					c-0.026-0.128-0.143-0.22-0.275-0.203c-0.126,0.017-0.208,0.127-0.209,0.251c-0.14,0.012-0.274,0.042-0.417,0.042
					S29.723,25.016,29.583,25.004z M33.246,23.835c-0.088-0.089-0.225-0.109-0.327-0.031c-0.107,0.082-0.125,0.232-0.05,0.342
					c-0.112,0.078-0.236,0.137-0.355,0.206l-1.355-2.69l-0.621-0.829c0.045-0.029,0.093-0.054,0.133-0.09l0.634,0.807l2.263,2.019
					l-2.019-2.263l-0.807-0.634c0.036-0.04,0.06-0.088,0.09-0.133l0.829,0.621l2.69,1.355c-0.069,0.119-0.128,0.243-0.206,0.355
					c-0.11-0.076-0.26-0.057-0.342,0.05c-0.078,0.102-0.057,0.239,0.031,0.327c-0.09,0.107-0.168,0.224-0.266,0.323
					C33.47,23.667,33.352,23.744,33.246,23.835z"/>
			</g>
		</g>
		<g style="opacity:0.1;">
			<path style="fill:#231F20;" d="M57.038,1.012c1.103,0,2,0.897,2,2v34c0,1.103-0.897,2-2,2h-54c-1.103,0-2-0.897-2-2v-34
				c0-1.103,0.897-2,2-2H57.038 M57.038,0.012h-54c-1.657,0-3,1.343-3,3v34c0,1.657,1.343,3,3,3h54c1.657,0,3-1.343,3-3v-34
				C60.038,1.355,58.695,0.012,57.038,0.012L57.038,0.012z"/>
		</g>
	</g>
</g>
<g id="Layer_1">
</g>
</svg>
