<?xml version="1.0" encoding="utf-8" ?><svg preserveAspectRatio="xMidYMid meet" xmlns="http://www.w3.org/2000/svg" xmlns:xlink="http://www.w3.org/1999/xlink" viewBox="405.944 198.102 565.072 358.197"><path fill="#5A6F2F" d="M545.665 280.599L546.07 280.001C551.357 272.274 577.31 240.648 583.843 236.294C589.974 232.208 647.138 217.757 657.547 215.751C657.973 220.714 657.873 227.855 657.946 232.988C658.865 245.365 659.016 258.885 659.212 271.331C666.322 278.794 676.896 286.546 684.806 293.794C679.996 312.912 674.027 332.054 668.113 350.86C667.822 351.787 668.092 352.453 668.501 353.242L665.389 353.948C663.425 352.677 663.93 352.605 663.017 349.801L663.561 354.732C658.477 355.075 647.933 357.446 642.353 358.528L602.549 366.275C592.387 380.916 583.367 404.113 573.297 418.418C566.181 419.982 555.123 419.577 547.822 419.213C545.385 390.092 544.232 354.689 542.784 324.962L522.702 344.286C526.271 330.57 538.397 296.363 544.01 282.66L545.665 280.599Z"/><defs><linearGradient id="gradient_0" gradientUnits="userSpaceOnUse" x1="619.12787" y1="262.85028" x2="569.22467" y2="423.47696"><stop offset="0" stop-color="#415125"/><stop offset="1" stop-color="#5B6B31"/></linearGradient></defs><path fill="url(#gradient_0)" d="M658.733 272.075C660.562 284.183 660.672 304.799 661.463 317.572C661.859 323.969 663.264 344.115 663.017 349.801L663.561 354.732C658.477 355.075 647.933 357.446 642.353 358.528L602.549 366.275C592.387 380.916 583.367 404.113 573.297 418.418C566.181 419.982 555.123 419.577 547.822 419.213C545.385 390.092 544.232 354.689 542.784 324.962L522.702 344.286C526.271 330.57 538.397 296.363 544.01 282.66C551.472 292.306 559.494 301.333 567.156 310.763C579.963 326.524 592.948 342.045 606.535 357.154C622.882 328.364 641.525 300.356 658.733 272.075Z"/><path fill="#8CAA48" d="M545.665 280.599L546.07 280.001C551.357 272.274 577.31 240.648 583.843 236.294C589.974 232.208 647.138 217.757 657.547 215.751C657.973 220.714 657.873 227.855 657.946 232.988C635.537 240.768 621.41 245.588 599.963 255.492C588.905 260.576 577.893 265.761 566.93 271.046C562.372 273.235 549.775 279.589 545.665 280.599Z"/><path fill="#475428" d="M667.485 232.699C667.273 228.312 667.143 223.921 667.095 219.528C667.032 215.965 666.58 207.534 668.61 204.916C670.956 201.89 681.058 202.244 684.538 202.333C699.742 202.727 714.925 202.367 730.116 202.964L730.823 202.994C740.411 202.746 756.467 201.999 765.728 202.669C768.393 202.873 770.474 202.878 772.702 204.513C782.703 210.485 807.041 233.56 814.132 242.909C810.624 245.468 807.32 247.016 803.469 248.972C800.522 250.859 784.862 260.66 782.061 261.624L778.221 256.128C777.018 254.752 776.006 253.909 774.648 252.716C771.374 252.664 767.618 252.835 764.305 252.905C764.968 262.047 744.701 269.649 743.767 278.549C743.642 279.739 744.119 281.242 743.916 283.012L741.499 276.157C740.977 278.899 740.416 287.114 740.205 290.136C739.308 302.938 738.613 312.091 735.491 324.679C729.606 320.643 718.626 311.081 712.663 306.113C698.386 294.218 681.702 280.805 668.627 267.787C667.579 258.869 667.68 242.091 667.485 232.699Z"/><path fill="#8CAA48" d="M730.823 202.994C740.411 202.746 756.467 201.999 765.728 202.669C768.393 202.873 770.474 202.878 772.702 204.513C782.703 210.485 807.041 233.56 814.132 242.909C810.624 245.468 807.32 247.016 803.469 248.972C800.522 250.859 784.862 260.66 782.061 261.624L778.221 256.128C777.018 254.752 776.006 253.909 774.648 252.716C774.307 252.632 771.555 251.78 771.459 251.676C764.917 244.607 759.756 236.836 753.221 229.683C747.152 223.282 736.457 210.034 730.823 202.994Z"/><path fill="#8CAA48" d="M730.823 202.994C740.411 202.746 756.467 201.999 765.728 202.669C772.301 205.918 771.04 206.812 771.707 213.805C771.827 215.069 772.866 218.292 773.276 219.608C770.289 221.195 755.508 229.03 753.221 229.683C747.152 223.282 736.457 210.034 730.823 202.994Z"/><path fill="#79933E" d="M753.221 229.683C755.508 229.03 770.289 221.195 773.276 219.608L774.453 227.366C774.727 229.133 776.099 238.633 776.534 239.702C776.411 245.786 778.14 250.443 778.221 256.128C777.018 254.752 776.006 253.909 774.648 252.716C774.307 252.632 771.555 251.78 771.459 251.676C764.917 244.607 759.756 236.836 753.221 229.683Z"/><path fill="#98BC4C" d="M776.534 239.702C778.759 244.482 776.749 248.518 783.247 248.824C790.014 249.143 796.694 249.024 803.469 248.972C800.522 250.859 784.862 260.66 782.061 261.624L778.221 256.128C778.14 250.443 776.411 245.786 776.534 239.702Z"/><path fill="#98BC4C" d="M765.728 202.669C768.393 202.873 770.474 202.878 772.702 204.513C771.095 209.553 774.135 211.69 773.364 218.509L774.15 219.974C775.053 219.367 776.455 214.72 780.013 214.081L780.405 214.889C777.976 219.521 777.356 222.291 774.453 227.366L773.276 219.608C772.866 218.292 771.827 215.069 771.707 213.805C771.04 206.812 772.301 205.918 765.728 202.669Z"/><defs><linearGradient id="gradient_1" gradientUnits="userSpaceOnUse" x1="728.2301" y1="243.94751" x2="759.65204" y2="229.57335"><stop offset="0" stop-color="#4B5B2B"/><stop offset="1" stop-color="#677C3B"/></linearGradient></defs><path fill="url(#gradient_1)" d="M730.116 202.964L730.823 202.994C736.457 210.034 747.152 223.282 753.221 229.683C759.756 236.836 764.917 244.607 771.459 251.676C771.555 251.78 774.307 252.632 774.648 252.716C771.374 252.664 767.618 252.835 764.305 252.905C764.968 262.047 744.701 269.649 743.767 278.549C743.642 279.739 744.119 281.242 743.916 283.012L741.499 276.157C739.704 269.874 736.776 249.485 735.693 241.998C734.245 231.994 730.261 213.111 729.609 203.778L730.116 202.964Z"/><path fill="#566431" d="M667.485 232.699C667.273 228.312 667.143 223.921 667.095 219.528C667.032 215.965 666.58 207.534 668.61 204.916C670.956 201.89 681.058 202.244 684.538 202.333C699.742 202.727 714.925 202.367 730.116 202.964L729.609 203.778C726.099 204.266 716.844 209.555 713.122 211.226C699.222 217.468 681.713 227.925 667.485 232.699Z"/><path fill="#152022" d="M918.176 465.598C941.846 462.675 963.452 479.368 966.604 503.014C969.756 526.66 953.277 548.432 929.669 551.814C905.734 555.243 883.599 538.483 880.404 514.51C877.208 490.538 894.179 468.562 918.176 465.598ZM926.955 535.1C959.204 528.617 954.155 480.183 922.167 482.072C888.091 486.6 890.154 536.097 926.955 535.1Z"/><path fill="#152022" d="M791.212 468.064C792.187 467.994 793.162 467.939 794.138 467.897C800.662 467.635 807.869 467.947 814.466 467.917C829.931 467.847 846.719 467.443 858.649 479.335C875.62 496.252 873.449 522.612 857.754 539.088C843.489 550.316 831.902 549.912 814.853 549.914L790.075 549.904C789.836 532.015 789.774 489.223 790.278 469.035C790.589 468.711 790.901 468.388 791.212 468.064ZM808.445 534.227C821.202 534.401 834.972 536.425 844.643 527.274C850.14 521.002 851.073 517.132 851.343 508.973C852.272 480.887 828.089 482.41 808.287 483.133L808.445 534.227Z"/><path fill="#5A6F2F" d="M684.806 293.794C689.759 297.806 729.82 330.301 731.253 332.781C722.617 351.837 713.414 370.735 703.976 389.409C699.712 397.843 693.827 411.206 689.26 419.002C682.007 419.442 672.393 419.766 665.159 418.968C663.739 398.068 664.375 375.795 663.561 354.732L663.017 349.801C663.93 352.605 663.425 352.677 665.389 353.948L668.501 353.242C668.092 352.453 667.822 351.787 668.113 350.86C674.027 332.054 679.996 312.912 684.806 293.794Z"/><path fill="#79933E" d="M684.806 293.794C689.759 297.806 729.82 330.301 731.253 332.781C719.686 335.068 703.692 341.522 691.975 345.211C686.957 346.791 673.043 351.257 668.501 353.242C668.092 352.453 667.822 351.787 668.113 350.86C674.027 332.054 679.996 312.912 684.806 293.794Z"/><path fill="#152022" d="M583.158 467.315C587.146 467.187 592.652 467.463 596.743 467.551C597.678 492.661 596.739 524.552 596.643 550.147C591.644 549.971 586.641 549.885 581.639 549.89C567.896 533.904 555.516 516.275 541.167 500.544C540.874 506.841 541.448 547.666 540.228 549.742L536.996 549.906C532.457 550.016 527.647 549.894 523.083 549.847C522.488 535.712 522.804 520.864 522.672 506.633C522.564 495.07 521.606 479.182 522.726 467.877C528.515 467.509 532.167 467.456 537.96 467.704C551.43 481.589 564.957 503.302 578.5 517.291C579.22 503.886 577.168 480.491 578.751 468.91C580.366 467.259 580.366 467.732 583.158 467.315Z"/><path fill="#152022" d="M726.083 467.881C732.315 467.476 738.566 467.452 744.801 467.81C749.207 476.025 753.989 488.163 757.845 496.976C765.553 514.704 773.396 532.372 781.375 549.98C774.87 549.987 768.366 549.915 761.863 549.763C759.332 544.872 756.414 537.452 754.185 532.227L744.268 532.217L716.072 532.146C713.523 538.072 711.025 544.019 708.577 549.987L689.556 549.974C691.512 544.024 695.289 536.739 697.933 530.88L710.941 501.688C715.312 492.085 721.412 476.467 726.083 467.881ZM722.214 518.087L734.882 518.125L748.457 517.987C746.225 512.361 737.816 490.539 735.28 486.352C730.993 496.706 726.232 507.672 722.214 518.087Z"/><path fill="#152022" d="M649.409 466.606C663.748 463.988 677.811 470.136 687.581 480.453C683.631 484.579 680.551 487.54 676.276 491.329C643.178 464.574 617.086 502.814 635.787 526.113C639.932 531.237 645.979 534.458 652.542 535.038C662.55 536.017 668.688 531.954 675.938 526.114C679.433 528.219 685.077 533.824 688.272 536.852C686.779 538.391 685.231 539.958 683.66 541.414C669.274 554.751 643.176 554.449 627.711 542.99C618.918 536.445 613.09 526.669 611.512 515.821C607.602 488.971 623.053 470.32 649.409 466.606Z"/><path fill="#152022" d="M418.092 467.345C433.992 466.95 454.838 467.61 471.212 467.774C471.671 473.135 471.565 476.584 471.363 481.987C459.609 483.049 441.525 482.583 429.22 482.596C428.958 490.188 429.006 496.775 429.164 504.332C441.18 505.018 454.7 504.818 466.846 504.874L466.897 515.502C466.751 518.18 467.168 517.881 465.805 519.776C458.414 520.586 437.208 519.975 429.136 519.959C428.863 529.788 429.103 540.16 428.921 550.151C423.888 549.69 415.869 550.036 410.598 550.117C410.249 541.083 409.427 473.841 410.871 468.479C412.765 467.444 415.821 467.49 418.092 467.345Z"/><path fill="#79933E" d="M814.132 242.909L814.82 244.352C818.023 254.099 821.745 269.564 824.37 279.991C827.882 293.941 833.691 312.528 836.341 326.327C832.784 325.268 830.011 324.486 826.584 322.979C820.844 320.948 813.181 317.43 807.425 314.995L805.26 313.793C796.933 309.307 788.682 301.668 780.658 295.945C780.636 284.616 781.789 273.394 781.943 262.119L782.061 261.624C784.862 260.66 800.522 250.859 803.469 248.972C807.32 247.016 810.624 245.468 814.132 242.909Z"/><path fill="#8CAA48" d="M811.16 286.037C814.152 282.842 811.157 253.034 814.82 244.352C818.023 254.099 821.745 269.564 824.37 279.991C827.882 293.941 833.691 312.528 836.341 326.327C832.784 325.268 830.011 324.486 826.584 322.979C820.844 320.948 813.181 317.43 807.425 314.995C808.09 312.81 808.334 308.998 808.572 306.584C808.739 304.246 808.955 301.912 809.219 299.583C810.115 295.425 810.62 290.319 811.16 286.037Z"/><path fill="#79933E" d="M809.219 299.583C809.34 303.419 822.78 317.71 826.584 322.979C820.844 320.948 813.181 317.43 807.425 314.995C808.09 312.81 808.334 308.998 808.572 306.584C808.739 304.246 808.955 301.912 809.219 299.583Z"/><path fill="#6A803A" d="M807.292 301.221C808.103 296.011 807.854 289.646 811.16 286.037C810.62 290.319 810.115 295.425 809.219 299.583C808.955 301.912 808.739 304.246 808.572 306.584C808.286 304.239 808.257 303.47 807.292 301.221Z"/><path fill="#5A6F2F" d="M807.292 301.221C808.257 303.47 808.286 304.239 808.572 306.584C808.334 308.998 808.09 312.81 807.425 314.995L805.26 313.793C805.415 310.563 806.679 304.596 807.292 301.221Z"/><path fill="#79933E" d="M733.278 348.586C734.071 347.059 734.923 345.307 735.782 343.842C741.289 360.201 746.477 376.665 751.343 393.226C753.311 399.72 756.212 407.643 757.686 414.098L758.123 416.885C754.552 421.224 733.191 420.103 728.289 418.177L727.498 417.354C723.509 408.384 716.943 399.16 712.905 389.232C715.849 381.284 728.858 357.14 733.278 348.586Z"/><path fill="#475428" d="M733.278 348.586C734.085 358.039 731.021 379.613 730.234 390.112C728.925 399.028 728.782 408.32 727.498 417.354C723.509 408.384 716.943 399.16 712.905 389.232C715.849 381.284 728.858 357.14 733.278 348.586Z"/><path fill="#6A803A" d="M727.498 417.354C728.782 408.32 728.925 399.028 730.234 390.112C730.573 394.232 730.094 394.107 733.332 397.163C740.43 403.865 748.531 409.816 756.517 415.382L757.226 415.255L757.686 414.098L758.123 416.885C754.552 421.224 733.191 420.103 728.289 418.177L727.498 417.354Z"/><path fill="#5A6F2F" d="M607.605 372.938C612.236 372.042 621.244 369.135 625.936 369.58C626.778 369.66 626.898 370.629 627.318 371.648C631.097 379.541 634.581 388.681 637.997 396.819C640.763 403.409 644.893 412.175 646.734 418.884C637.474 419.739 623.949 419.684 614.579 419.055C611.54 415.688 600.698 394.615 598.116 389.512C600.825 384.111 604.257 377.945 607.605 372.938Z"/><path fill="#475428" d="M607.605 372.938C612.236 372.042 621.244 369.135 625.936 369.58C626.778 369.66 626.898 370.629 627.318 371.648C624.006 378.269 617.244 409.556 614.579 419.055C611.54 415.688 600.698 394.615 598.116 389.512C600.825 384.111 604.257 377.945 607.605 372.938Z"/><path fill="#475428" d="M743.916 283.012C744.119 281.242 743.642 279.739 743.767 278.549C744.701 269.649 764.968 262.047 764.305 252.905C769.353 259.554 773.644 261.737 781.943 262.119C781.789 273.394 780.636 284.616 780.658 295.945C777.835 299.828 767.54 308.919 763.45 312.623C758.591 310.047 752.894 306.294 748.238 303.336C746.422 297.048 745.04 289.437 743.916 283.012Z"/><path fill="#152022" d="M491.603 467.34L503.745 467.547C504.5 486.552 503.572 528.012 503.716 549.04C503.477 549.331 503.237 549.621 502.998 549.912L500.043 549.945C495.13 550.066 490.009 549.97 485.078 549.939L485.034 496.423C485.025 489.308 484.546 474.971 485.375 468.669C487.592 467.179 488.547 467.598 491.603 467.34Z"/><path fill="#566431" d="M761.013 374.546C761.218 368.109 761.948 362.118 763.694 355.889L766.31 356.373C765.73 360.468 766.336 361.825 768.127 365.555C768.066 364.031 768.01 362.751 767.844 361.236C770.189 362.095 775.203 369.051 776.841 371.301C777.054 374.689 776.68 375.498 779.612 377.889C784.218 381.644 790.452 386.304 796.422 386.954C800.83 385.102 806.012 383.302 810.545 381.615C814.258 377.182 818.102 372.607 820.796 367.492L823.909 372.385C824.609 373.676 825.424 375.309 826.281 376.467C828.553 374.731 828.903 374.167 831.582 374.682C832.22 376.132 833.562 379.373 834.311 380.618C824.507 394.811 822.509 397.822 804.326 401.383C795.693 403.073 781.941 399.899 775.812 393.758C769.01 389.745 764.49 381.417 761.013 374.546Z"/><path fill="#79933E" d="M761.013 374.546C761.218 368.109 761.948 362.118 763.694 355.889L766.31 356.373C765.73 360.468 766.336 361.825 768.127 365.555C768.066 364.031 768.01 362.751 767.844 361.236C770.189 362.095 775.203 369.051 776.841 371.301C777.054 374.689 776.68 375.498 779.612 377.889C784.218 381.644 790.452 386.304 796.422 386.954C800.171 388.093 806.801 388.962 810.963 389.776C807.073 393.983 803.136 398.145 799.153 402.264C795.739 396.98 792.042 393.303 787.472 389.088C784.192 389.084 781.419 388.909 778.254 389.878C776.922 390.601 776.21 390.732 774.702 390.827L775.812 393.758C769.01 389.745 764.49 381.417 761.013 374.546Z"/><path fill="#475428" d="M761.013 374.546C761.218 368.109 761.948 362.118 763.694 355.889L766.31 356.373C765.73 360.468 766.336 361.825 768.127 365.555C769.965 373.009 771.943 381.973 774.298 389.161C775.81 390.013 776.448 389.856 778.254 389.878C776.922 390.601 776.21 390.732 774.702 390.827L775.812 393.758C769.01 389.745 764.49 381.417 761.013 374.546Z"/><path fill="#8CAA48" d="M820.796 367.492L823.909 372.385C824.609 373.676 825.424 375.309 826.281 376.467C820.305 381.045 816.459 384.871 810.963 389.776C806.801 388.962 800.171 388.093 796.422 386.954C800.83 385.102 806.012 383.302 810.545 381.615C814.258 377.182 818.102 372.607 820.796 367.492Z"/><path fill="#566431" d="M776.639 306.076C778.445 304.819 779.946 303.367 781.991 303.486C785.402 305.165 790.815 310.842 794.22 313.665C806.1 323.518 816.801 326.166 831.261 330.683C834.621 329.46 852.501 329.555 857.582 329.37C855.337 330.292 849.366 333.272 847.435 333.795C842.98 336.175 839.172 337.038 835.196 338.933C805.169 344.885 787.539 327.835 765.632 314.135L771.431 310.184C772.971 308.765 774.95 307.356 776.639 306.076Z"/><path fill="#8CAA48" d="M776.639 306.076C778.445 304.819 779.946 303.367 781.991 303.486C785.402 305.165 790.815 310.842 794.22 313.665C806.1 323.518 816.801 326.166 831.261 330.683C829.178 336.028 827.153 333.263 821.986 334.602C803.733 336.822 789.158 316.809 776.639 306.076Z"/><path fill="#5A6F2F" d="M771.431 310.184C772.971 308.765 774.95 307.356 776.639 306.076C789.158 316.809 803.733 336.822 821.986 334.602C827.153 333.263 829.178 336.028 831.261 330.683C834.621 329.46 852.501 329.555 857.582 329.37C855.337 330.292 849.366 333.272 847.435 333.795C842.98 336.175 839.172 337.038 835.196 338.933C833.621 338.647 832.227 338.594 831.029 337.613C832.784 337.408 834.543 337.244 836.306 337.12C825.761 336.259 812.064 336.898 803.561 331.103C798.794 327.854 773.366 313.041 771.431 310.184Z"/><path fill="#79933E" d="M857.582 329.37C855.337 330.292 849.366 333.272 847.435 333.795C835.983 336.476 833.86 335.973 821.986 334.602C827.153 333.263 829.178 336.028 831.261 330.683C834.621 329.46 852.501 329.555 857.582 329.37Z"/><path fill="#8CAA48" d="M773.774 343.399C780.67 335.271 798.567 340.193 805.63 346.332C809.768 349.907 812.287 355.002 812.616 360.462C812.927 366.275 809.672 372.773 805.795 376.971C802.963 377.509 795.077 379.171 792.618 379.133C794.092 377.924 794.249 377.558 795.33 375.947C793.623 374.482 791.08 372.683 790.418 370.689C794.944 369.594 795.871 368.955 799.817 366.655C799.651 361.352 799.324 358.897 797.155 354.066C791.32 352.462 788.264 353.001 782.416 353.861C778.38 360.448 778.117 363.832 776.841 371.301C775.203 369.051 770.189 362.095 767.844 361.236C768.01 362.751 768.066 364.031 768.127 365.555C766.336 361.825 765.73 360.468 766.31 356.373L763.694 355.889L764.012 355.227C765.8 351.886 771.058 346.15 773.774 343.399Z"/><path fill="#5A6F2F" d="M775.264 354.074C780.778 352.258 785.089 346.854 789.395 342.544C792.025 346.186 793.877 348.802 796.965 352.111L798.99 352.662C798.623 352.932 797.387 353.796 797.155 354.066C791.32 352.462 788.264 353.001 782.416 353.861C778.38 360.448 778.117 363.832 776.841 371.301C775.203 369.051 770.189 362.095 767.844 361.236C768.01 362.751 768.066 364.031 768.127 365.555C766.336 361.825 765.73 360.468 766.31 356.373L763.694 355.889L764.012 355.227C767.53 355.675 771.703 354.695 775.264 354.074Z"/><path fill="#6A803A" d="M796.965 352.111C799.74 351.502 800.671 351.296 803.279 350.174C805.893 350.702 805.403 350.972 807.581 353.427C805.683 357.892 803.736 363.84 799.817 366.655C799.651 361.352 799.324 358.897 797.155 354.066C797.387 353.796 798.623 352.932 798.99 352.662L796.965 352.111Z"/><path fill="#6A803A" d="M795.33 375.947C797.168 374.032 799.177 371.801 801.266 370.219L802.577 370.307C804.931 373.114 804.299 374.897 805.795 376.971C802.963 377.509 795.077 379.171 792.618 379.133C794.092 377.924 794.249 377.558 795.33 375.947Z"/><path fill="#79933E" d="M764.012 355.227C765.8 351.886 771.058 346.15 773.774 343.399C773.876 346.49 773.139 351.436 773.578 353.347C774.361 353.767 774.427 353.912 775.264 354.074C771.703 354.695 767.53 355.675 764.012 355.227Z"/><path fill="#8CAA48" d="M828.27 344.518C832.961 344.187 836.692 344.028 841.397 344.04C842.083 350.971 841.264 364.026 840.941 371.321C838.624 375.044 836.999 377.197 834.311 380.618C833.562 379.373 832.22 376.132 831.582 374.682C828.903 374.167 828.553 374.731 826.281 376.467C825.424 375.309 824.609 373.676 823.909 372.385L820.796 367.492C821.494 359.229 818.545 352.044 816.572 344.589C818.282 343.814 820.005 344.366 821.957 344.683L828.27 344.518Z"/><path fill="#475428" d="M820.796 367.492C821.494 359.229 818.545 352.044 816.572 344.589C818.282 343.814 820.005 344.366 821.957 344.683L828.27 344.518C828.646 349.132 829.838 359.624 828.472 363.508C829.325 366.321 830.365 372.544 831.579 373.924L831.582 374.682C828.903 374.167 828.553 374.731 826.281 376.467C825.424 375.309 824.609 373.676 823.909 372.385L820.796 367.492Z"/><path fill="#6A803A" d="M821.957 344.683L828.27 344.518C828.646 349.132 829.838 359.624 828.472 363.508L824.937 358.555C824.106 353.327 823.63 349.701 821.957 344.683Z"/><path fill="#5A6F2F" d="M824.937 358.555L828.472 363.508C829.325 366.321 830.365 372.544 831.579 373.924L831.582 374.682C828.903 374.167 828.553 374.731 826.281 376.467C825.424 375.309 824.609 373.676 823.909 372.385L824.885 371.888C826.119 369.591 825.164 361.646 824.937 358.555Z"/><path fill="#6A803A" d="M831.579 373.924C835.314 372.171 836.84 371.977 840.941 371.321C838.624 375.044 836.999 377.197 834.311 380.618C833.562 379.373 832.22 376.132 831.582 374.682L831.579 373.924Z"/><path fill="#79933E" d="M792.618 379.133C787.056 375.232 783.387 373.673 784.939 366.065L785.702 365.774C787.185 367.693 788.353 369.351 790.418 370.689C791.08 372.683 793.623 374.482 795.33 375.947C794.249 377.558 794.092 377.924 792.618 379.133Z"/></svg>