<?xml version="1.0" encoding="utf-8" ?><svg preserveAspectRatio="xMidYMid meet" xmlns="http://www.w3.org/2000/svg" xmlns:xlink="http://www.w3.org/1999/xlink" viewBox="214.893 255.468 895.094 208.661"><path fill="#5F7730" transform="scale(0.979167 0.979167)" d="M244.731 339.728C249.426 332.333 274.254 303.846 281.415 297.32C283.585 295.343 308.713 289.093 313.554 287.803C325.844 284.568 338.076 281.119 350.246 277.458C350.36 284.653 350.631 291.844 351.059 299.027C351.176 308.118 351.3 322.155 352.221 330.992C360.175 338.015 368.197 344.958 376.288 351.821L403.473 374.684C407.228 377.842 415.791 385.31 419.689 387.652C417.251 395.242 410.354 408.201 406.616 415.631C400.629 427.565 394.71 439.533 388.86 451.535C387.601 454.086 381.086 466.936 380.563 468.959C375.922 470.042 362.66 469.366 357.282 469.169C356.406 450.156 356.799 428.741 356.139 409.105L355.52 408.816C347.858 409.963 299.38 418.191 296.757 421.086C291.908 429.944 287.129 438.84 282.418 447.773C279.479 453.388 274.012 464.684 270.332 469.244C265.707 469.44 249.887 470.775 247.055 468.051C246.209 458.464 243.999 385.215 242.118 381.297L238.357 384.697C237.194 386.518 225.864 397.407 223.658 399.56C227.279 387.898 231.596 375.867 235.579 364.279L237.156 359.651C237.704 356.887 242.292 344.678 243.477 341.339L244.731 339.728Z"/><path fill="#50632C" transform="scale(0.979167 0.979167)" d="M302.158 411.2C318.536 384.529 335.308 356.438 352.441 330.346C354.552 355.033 354.316 380.627 356.28 405.397C356.354 406.333 356.084 408.043 355.52 408.816C347.858 409.963 299.38 418.191 296.757 421.086C291.908 429.944 287.129 438.84 282.418 447.773C279.479 453.388 274.012 464.684 270.332 469.244C265.707 469.44 249.887 470.775 247.055 468.051C246.209 458.464 243.999 385.215 242.118 381.297L238.357 384.697C237.194 386.518 225.864 397.407 223.658 399.56C227.279 387.898 231.596 375.867 235.579 364.279L237.156 359.651C237.704 356.887 242.292 344.678 243.477 341.339C262.168 363.549 282.963 390.334 302.158 411.2Z"/><path fill="#5F7730" transform="scale(0.979167 0.979167)" d="M247.055 468.051C252.093 466.746 286.609 423.823 296.757 421.086C291.908 429.944 287.129 438.84 282.418 447.773C279.479 453.388 274.012 464.684 270.332 469.244C265.707 469.44 249.887 470.775 247.055 468.051Z"/><path fill="#465628" transform="scale(0.979167 0.979167)" d="M235.579 364.279C240.031 370.004 234.092 380.956 238.357 384.697C237.194 386.518 225.864 397.407 223.658 399.56C227.279 387.898 231.596 375.867 235.579 364.279Z"/><path fill="#3E4D23" transform="scale(0.979167 0.979167)" d="M237.156 359.651C240.101 362.873 240.055 374.75 242.118 381.297L238.357 384.697C234.092 380.956 240.031 370.004 235.579 364.279L237.156 359.651Z"/><path fill="#89A944" transform="scale(0.979167 0.979167)" d="M244.731 339.728C249.426 332.333 274.254 303.846 281.415 297.32C283.585 295.343 308.713 289.093 313.554 287.803C325.844 284.568 338.076 281.119 350.246 277.458C350.36 284.653 350.631 291.844 351.059 299.027L350.08 295.512C342.419 292.928 257.26 334.831 244.731 339.728Z"/><path fill="#7C983D" transform="scale(0.979167 0.979167)" d="M376.288 351.821L403.473 374.684C407.228 377.842 415.791 385.31 419.689 387.652C400.172 394.61 378.236 401.005 359.155 408.398C364.293 393.994 373.035 366.153 376.288 351.821Z"/><path fill="#50632C" transform="scale(0.979167 0.979167)" d="M356.139 409.105C358.696 408.414 358.07 408.151 359.955 409.022C365.841 421.952 370.86 440.926 375.748 454.474C376.745 457.238 380.352 466.952 380.563 468.959C375.922 470.042 362.66 469.366 357.282 469.169C356.406 450.156 356.799 428.741 356.139 409.105Z"/><path fill="#50632C" transform="scale(0.979167 0.979167)" d="M419.487 265.862L457.01 265.735C466.445 271.505 489.256 294.817 497.843 304.013L498.413 306.486C502.237 321.618 506.229 336.706 510.39 351.749C512.884 360.835 516.53 372.894 518.367 381.912C516.011 381.204 511.849 380.086 509.721 379.165C504.871 377.262 493.771 373.063 489.71 370.352L488.854 370.139C483.944 367.728 471.116 357.479 466.151 353.707C460.625 358.993 455.042 364.218 449.403 369.383C444.398 366.437 440.171 363.839 435.361 360.592C434.17 354.629 431.79 340.35 428.689 335.908C428.868 331.391 426.598 318.719 425.764 313.588L420.972 282.926C420.205 277.933 418.906 271.259 419.258 266.41L419.487 265.862Z"/><path fill="#7C983D" transform="scale(0.979167 0.979167)" d="M489.674 308.315C491.279 307.704 496.1 304.953 497.843 304.013L498.413 306.486C502.237 321.618 506.229 336.706 510.39 351.749C512.884 360.835 516.53 372.894 518.367 381.912C516.011 381.204 511.849 380.086 509.721 379.165C504.871 377.262 493.771 373.063 489.71 370.352L488.854 370.139C483.944 367.728 471.116 357.479 466.151 353.707C465.885 344.139 467.049 332.069 467.141 322.168L467.421 321.854C469.416 320.997 487.501 309.817 489.674 308.315Z"/><path fill="#89A944" transform="scale(0.979167 0.979167)" d="M498.413 306.486C502.237 321.618 506.229 336.706 510.39 351.749C512.884 360.835 516.53 372.894 518.367 381.912C516.011 381.204 511.849 380.086 509.721 379.165C504.871 377.262 493.771 373.063 489.71 370.352C491.636 368.866 492.111 360.67 492.649 357.679L493.477 357.992C493.968 351.778 495.268 345.338 495.612 338.982C496.102 329.937 495.795 315.046 498.413 306.486Z"/><path fill="#5F7730" transform="scale(0.979167 0.979167)" d="M492.649 357.679L493.477 357.992C497.045 366.826 505.99 371.812 509.721 379.165C504.871 377.262 493.771 373.063 489.71 370.352C491.636 368.866 492.111 360.67 492.649 357.679Z"/><path fill="#50632C" transform="scale(0.979167 0.979167)" d="M488.854 370.139C489.132 367.154 490.496 359.91 491.425 357.167L492.649 357.679C492.111 360.67 491.636 368.866 489.71 370.352L488.854 370.139Z"/><path fill="#A5CB51" transform="scale(0.979167 0.979167)" d="M457.01 265.735C466.445 271.505 489.256 294.817 497.843 304.013C496.1 304.953 491.279 307.704 489.674 308.315C487.501 309.817 469.416 320.997 467.421 321.854C466.392 319.672 464.084 317.686 462.684 314.921C464.083 312.569 463.559 312.819 463.221 309.492L459.36 281.535C458.382 277.03 457.656 270.452 457.01 265.735Z"/><path fill="#89A944" transform="scale(0.979167 0.979167)" d="M419.487 265.862L457.01 265.735C457.656 270.452 458.382 277.03 459.36 281.535L463.221 309.492C463.559 312.819 464.083 312.569 462.684 314.921C458.918 312.271 457.028 312.68 452.513 313.026C453.695 312.599 454.31 312.172 455.394 311.553C455.281 307.643 438.888 290.019 435.25 284.976C430.435 280.282 423.46 269.618 419.258 266.41L419.487 265.862Z"/><path fill="white" transform="scale(0.979167 0.979167)" d="M452.513 313.026C457.028 312.68 458.918 312.271 462.684 314.921C464.084 317.686 466.392 319.672 467.421 321.854L467.141 322.168C462.885 321.426 451.873 319.356 451.506 313.982L452.513 313.026Z"/><path fill="#121F21" transform="scale(0.979167 0.979167)" d="M1078.53 334.282C1102.39 330.257 1124.97 346.435 1128.84 370.331C1132.7 394.227 1116.38 416.702 1092.46 420.41C1068.77 424.084 1046.56 407.941 1042.73 384.268C1038.9 360.596 1054.89 338.269 1078.53 334.282Z"/><path fill="white" transform="scale(0.979167 0.979167)" d="M1081.62 350.617C1115.88 347.695 1122.76 395.028 1090.59 403.604C1054.28 407.404 1048.8 357.594 1081.62 350.617Z"/><path fill="#121F21" transform="scale(0.979167 0.979167)" d="M952.593 335.988C973.174 335.927 1004.63 332.172 1020.4 347.59C1036.84 363.658 1036.12 390.012 1020.36 406.621C1002.51 422.208 975.765 418.689 952.606 418.703L952.593 335.988Z"/><path fill="white" transform="scale(0.979167 0.979167)" d="M971.052 351.256C989.077 351.107 1011.84 349.365 1013.37 374.573C1013.91 383.55 1012.53 389.273 1006.39 395.984C996.823 404.71 983.536 403.145 971.228 403.099L971.052 351.256Z"/><path fill="#465628" transform="scale(0.979167 0.979167)" d="M360.163 295.3C360.175 290.358 359.701 285.314 359.653 280.399C359.549 269.62 358.407 264.727 370.656 265.048C386.938 265.474 403.235 265.643 419.487 265.862L419.258 266.41C418.906 271.259 420.205 277.933 420.972 282.926L425.764 313.588C426.598 318.719 428.868 331.391 428.689 335.908C427.586 349.932 426.849 367.077 423.337 380.391C418.188 376.791 407.736 367.472 402.413 362.981C388.885 351.569 373.547 339.282 360.771 327.183L360.163 295.3Z"/><path fill="#5F7730" transform="scale(0.979167 0.979167)" d="M360.163 295.3C360.175 290.358 359.701 285.314 359.653 280.399C359.549 269.62 358.407 264.727 370.656 265.048C386.938 265.474 403.235 265.643 419.487 265.862L419.258 266.41C415.137 266.291 367.887 291.079 360.163 295.3Z"/><path fill="#121F21" transform="scale(0.979167 0.979167)" d="M684.083 335.894L699.175 335.817C703.69 340.536 709.908 348.763 714.132 354.016L740.572 386.747C740.899 370.406 740.463 352.416 740.389 335.952L758.87 335.881C759.181 363.212 758.834 391.311 758.908 418.753L743.855 418.758C729.93 402.557 716.484 384.712 702.376 368.197L702.391 418.759L684.339 418.786L684.083 335.894Z"/><path fill="#121F21" transform="scale(0.979167 0.979167)" d="M888.571 335.87L906.981 335.993C919.432 363.484 931.656 391.077 943.651 418.769L924.022 418.803L916.785 401.051L908.414 401.026L877.99 401.047C875.825 406.854 873.175 413.01 870.814 418.782L851.635 418.854C864.14 391.621 876.302 363.325 888.571 335.87Z"/><path fill="white" transform="scale(0.979167 0.979167)" d="M897.371 355.061C899.494 357.496 908.919 381.727 910.911 386.578L899.088 386.623L884.414 386.626C888.83 376.145 893.15 365.623 897.371 355.061Z"/><path fill="#121F21" transform="scale(0.979167 0.979167)" d="M811.17 334.983C826.466 333.106 839.731 337.774 849.976 349.27L838.631 360.586C832.886 354.977 827.107 350.908 818.806 350.386C812.145 349.902 805.572 352.147 800.599 356.606C775.007 379.568 807.651 422.86 836.949 395.526L837.783 394.73C840.951 394.949 847.934 402.83 850.677 405.601C835.522 422.345 808.942 425.113 790.663 412.059C781.57 405.519 775.537 395.554 773.957 384.464C770.048 358.658 785.644 338.684 811.17 334.983Z"/><path fill="#121F21" transform="scale(0.979167 0.979167)" d="M572.333 336.007L633.521 335.966L633.689 351.187L591.081 351.082L591.235 373.403C597.065 373.382 625.474 372.751 628.866 373.916L629.316 375.303L629.28 388.567L591.081 388.536L591.244 418.852L572.5 418.848L572.333 336.007Z"/><path fill="#7C983D" transform="scale(0.979167 0.979167)" d="M421.06 404.384C421.848 402.731 422.788 400.621 423.635 399.047C428.772 413.346 432.984 426.834 437.353 441.358C439.344 447.975 442.817 460.718 445.337 466.508L445.379 468.51C442.518 470.403 422.847 469.862 418.368 469.323C416.671 469.118 416.627 468.584 415.736 467.345C412.068 461.337 406.167 448.834 402.47 441.914C408.785 429.463 414.982 416.952 421.06 404.384Z"/><path fill="#50632C" transform="scale(0.979167 0.979167)" d="M421.06 404.384C423.175 407.431 418.981 439.905 418.321 446.312C417.955 450.119 417.076 465.108 415.736 467.345C412.068 461.337 406.167 448.834 402.47 441.914C408.785 429.463 414.982 416.952 421.06 404.384Z"/><path fill="#5F7730" transform="scale(0.979167 0.979167)" d="M415.736 467.345C417.076 465.108 417.955 450.119 418.321 446.312C423.81 451.06 439.213 464.023 445.337 466.508L445.379 468.51C442.518 470.403 422.847 469.862 418.368 469.323C416.671 469.118 416.627 468.584 415.736 467.345Z"/><path fill="#121F21" transform="scale(0.979167 0.979167)" d="M646.731 335.897L665.395 335.835L665.449 418.806L646.758 418.785C647.474 392.477 646.889 362.337 646.731 335.897Z"/><path fill="#5F7730" transform="scale(0.979167 0.979167)" d="M303.14 426.611C309.046 425.242 315.366 423.657 321.291 422.576C323.541 431.776 336.045 459.34 340.299 469.224C336.004 469.303 311.291 470.118 309.44 468.879C306.084 465.069 297.142 446.891 294.444 441.572C297.371 436.774 300.282 431.51 303.14 426.611Z"/><path fill="#465628" transform="scale(0.979167 0.979167)" d="M303.14 426.611C309.046 425.242 315.366 423.657 321.291 422.576C320.762 426.755 311.373 465.701 309.44 468.879C306.084 465.069 297.142 446.891 294.444 441.572C297.371 436.774 300.282 431.51 303.14 426.611Z"/><path fill="#50632C" transform="scale(0.979167 0.979167)" d="M503.627 411.208C502.943 408.031 499.229 401.41 500.962 399.228L503.513 399.587L510.903 399.739C514.79 399.497 519.204 399.116 523.054 399.05C523.035 403.497 523.091 421.083 522.242 424.621C520.13 428.098 518.81 430.052 516.327 433.283C512.803 438.239 509.592 442.704 505.787 447.439C500.834 448.995 489.213 452.857 484.456 453.726C483.866 453.908 483.195 453.845 482.549 453.847C482.476 450.857 474.885 443.703 472.442 441.158C476.304 439.991 477.075 439.605 481.091 439.938L480.572 439.107C484.529 437.373 489.67 436.536 494.923 434.123C498.377 429.485 500.635 426.469 503.441 421.456C503.453 418.069 503.561 414.602 503.627 411.208Z"/><path fill="#89A944" transform="scale(0.979167 0.979167)" d="M503.627 411.208C502.943 408.031 499.229 401.41 500.962 399.228L503.513 399.587L510.903 399.739C514.79 399.497 519.204 399.116 523.054 399.05C523.035 403.497 523.091 421.083 522.242 424.621C520.13 428.098 518.81 430.052 516.327 433.283C515.316 431.444 514.364 429.574 513.47 427.676L509.31 429.069L507.552 427.489C505.359 425.193 504.988 423.808 504.146 420.898C504.153 417.315 504.219 414.798 503.627 411.208Z"/><path fill="#465628" transform="scale(0.979167 0.979167)" d="M503.627 411.208C502.943 408.031 499.229 401.41 500.962 399.228L503.513 399.587C507.615 403.418 506.35 405.02 507.769 410.773C507.197 415.629 508.678 425.571 507.552 427.489C505.359 425.193 504.988 423.808 504.146 420.898C504.153 417.315 504.219 414.798 503.627 411.208Z"/><path fill="#5F7730" transform="scale(0.979167 0.979167)" d="M507.769 410.773C508.417 412.146 509.799 415.304 510.604 416.402C511.867 418.815 512.888 424.002 513.56 426.839L513.47 427.676L509.31 429.069L507.552 427.489C508.678 425.571 507.197 415.629 507.769 410.773Z"/><path fill="#5F7730" transform="scale(0.979167 0.979167)" d="M503.513 399.587L510.903 399.739C511.086 403.958 511.802 412.596 510.604 416.402C509.799 415.304 508.417 412.146 507.769 410.773C506.35 405.02 507.615 403.418 503.513 399.587Z"/><path fill="#5F7730" transform="scale(0.979167 0.979167)" d="M513.56 426.839C515.275 426.85 518.686 424.976 522.242 424.621C520.13 428.098 518.81 430.052 516.327 433.283C515.316 431.444 514.364 429.574 513.47 427.676L513.56 426.839Z"/><path fill="#89A944" transform="scale(0.979167 0.979167)" d="M503.627 411.208C504.219 414.798 504.153 417.315 504.146 420.898C504.988 423.808 505.359 425.193 507.552 427.489L509.31 429.069C506.082 431.636 502.772 434.206 499.655 436.899C498.134 438.293 496.603 439.733 495.035 441.068C489.317 441.022 486.736 440.831 481.091 439.938L480.572 439.107C484.529 437.373 489.67 436.536 494.923 434.123C498.377 429.485 500.635 426.469 503.441 421.456C503.453 418.069 503.561 414.602 503.627 411.208Z"/><path fill="#7C983D" transform="scale(0.979167 0.979167)" d="M504.146 420.898C504.988 423.808 505.359 425.193 507.552 427.489L509.31 429.069C506.082 431.636 502.772 434.206 499.655 436.899C500.873 429.042 504.486 429.769 504.146 420.898Z"/><path fill="#7C983D" transform="scale(0.979167 0.979167)" d="M472.442 441.158C476.304 439.991 477.075 439.605 481.091 439.938C486.736 440.831 489.317 441.022 495.035 441.068C492.912 443.345 484.788 451.397 484.456 453.726C483.866 453.908 483.195 453.845 482.549 453.847C482.476 450.857 474.885 443.703 472.442 441.158Z"/><path fill="#50632C" transform="scale(0.979167 0.979167)" d="M461.843 363.789L466.331 359.877C474.238 366.404 485.884 378.202 496.143 380.994C499.933 382.267 510.411 386.025 513.801 386.534L516.062 389.265C515.533 390.25 515.875 389.794 514.669 390.397C516.087 390.397 516.655 390.202 517.834 390.776L517.139 391.427L520.385 392.936C513.338 395.471 504.673 395.069 497.304 394.031C480.161 391.615 466.233 381.16 452.717 371.143L457.5 367.467L461.843 363.789Z"/><path fill="#89A944" transform="scale(0.979167 0.979167)" d="M461.843 363.789L466.331 359.877C474.238 366.404 485.884 378.202 496.143 380.994C499.933 382.267 510.411 386.025 513.801 386.534L516.062 389.265C515.533 390.25 515.875 389.794 514.669 390.397C516.087 390.397 516.655 390.202 517.834 390.776L517.139 391.427C514.919 391.675 500.057 390.162 497.449 389.667C487.174 385.804 484.91 384.732 475.893 377.937C472.819 373.959 465.895 366.532 461.843 363.789Z"/><path fill="#5F7730" transform="scale(0.979167 0.979167)" d="M461.843 363.789C465.895 366.532 472.819 373.959 475.893 377.937C468.891 376.883 465.426 370.266 457.5 367.467L461.843 363.789Z"/><path fill="#50632C" transform="scale(0.979167 0.979167)" d="M460.184 408.592L462.693 408.246C464.752 408.99 464.004 408.488 465.459 410.486C463.076 415.837 462.558 418.155 462.01 423.993C462.261 428.271 461.994 428.404 465.554 431.481C469.403 434.808 475.438 438.956 480.572 439.107L481.091 439.938C477.075 439.605 476.304 439.991 472.442 441.158C474.885 443.703 482.476 450.857 482.549 453.847C462.499 449.582 456.299 445.11 447.198 427.16C448.02 421.459 448.789 415.605 449.942 409.973L450.809 410.517C454.8 410.06 456.328 409.731 460.184 408.592Z"/><path fill="#7C983D" transform="scale(0.979167 0.979167)" d="M460.184 408.592L462.693 408.246C464.752 408.99 464.004 408.488 465.459 410.486C463.076 415.837 462.558 418.155 462.01 423.993C462.261 428.271 461.994 428.404 465.554 431.481C469.403 434.808 475.438 438.956 480.572 439.107L481.091 439.938C477.075 439.605 476.304 439.991 472.442 441.158C468.97 441.106 463.585 441.685 459.987 441.964C458.72 435.088 455.033 422.551 453.22 415.106L452.384 413.157L453.532 411.352L450.809 410.517C454.8 410.06 456.328 409.731 460.184 408.592Z"/><path fill="#5F7730" transform="scale(0.979167 0.979167)" d="M460.184 408.592L462.693 408.246C464.752 408.99 464.004 408.488 465.459 410.486C463.076 415.837 462.558 418.155 462.01 423.993C458.863 419.76 458.204 418.534 454.204 414.956L453.22 415.106L452.384 413.157L453.532 411.352L450.809 410.517C454.8 410.06 456.328 409.731 460.184 408.592Z"/><path fill="#5F7730" transform="scale(0.979167 0.979167)" d="M464.947 395.437C474.188 393.591 481.32 394.509 488.894 400.703C490.957 402.243 491.368 402.512 492.916 404.638C494.786 409.663 495.61 412.138 496.586 417.513C495.278 420.378 491.442 430.233 488.35 430.505C488.508 427.79 487.05 424.882 485.577 422.675L484.578 419.833L484.548 417.521C484.016 413.233 483.472 409.962 479.681 407.558C474.259 407.226 469.564 406.171 465.459 410.486C464.004 408.488 464.752 408.99 462.693 408.246L460.184 408.592C456.328 409.731 454.8 410.06 450.809 410.517L449.942 409.973C452.964 405.85 455.165 403.085 458.554 399.264C460.396 397.229 462.436 396.554 464.947 395.437Z"/><path fill="#89A944" transform="scale(0.979167 0.979167)" d="M464.947 395.437C474.188 393.591 481.32 394.509 488.894 400.703C490.957 402.243 491.368 402.512 492.916 404.638C494.786 409.663 495.61 412.138 496.586 417.513C495.278 420.378 491.442 430.233 488.35 430.505C488.508 427.79 487.05 424.882 485.577 422.675L484.578 419.833L484.548 417.521L484.991 418.233L485.711 418.394C488.811 415.323 489.883 408.769 489.546 404.558C486.633 405.524 484.678 406.174 481.681 406.766C479.043 403.661 476.915 400.963 474.468 397.726L474.015 397.916C468.537 396.43 469.554 400.292 464.947 395.437Z"/><path fill="#A5CB51" transform="scale(0.979167 0.979167)" d="M464.947 395.437C474.188 393.591 481.32 394.509 488.894 400.703C483.621 399.671 480.343 398.726 474.468 397.726L474.015 397.916C468.537 396.43 469.554 400.292 464.947 395.437Z"/><path fill="#89A944" transform="scale(0.979167 0.979167)" d="M458.554 399.264C460.396 397.229 462.436 396.554 464.947 395.437C469.554 400.292 468.537 396.43 474.015 397.916C472.068 399.686 464.052 407.79 462.693 408.246L460.184 408.592C456.328 409.731 454.8 410.06 450.809 410.517L449.942 409.973C452.964 405.85 455.165 403.085 458.554 399.264Z"/><path fill="#7C983D" transform="scale(0.979167 0.979167)" d="M458.554 399.264C460.693 402.338 457.673 403.678 460.184 408.592C456.328 409.731 454.8 410.06 450.809 410.517L449.942 409.973C452.964 405.85 455.165 403.085 458.554 399.264Z"/><path fill="#5F7730" transform="scale(0.979167 0.979167)" d="M477.998 432.608C474.52 430.165 467.904 425.264 470.14 420.169L471.205 420.246L473.605 423.329C478.982 423.366 480.448 423.167 484.578 419.833L485.577 422.675C487.05 424.882 488.508 427.79 488.35 430.505C485.331 430.701 481.045 431.879 477.998 432.608Z"/><path fill="#A5CB51" transform="scale(0.979167 0.979167)" d="M484.578 419.833L485.577 422.675C483.46 425.754 481.949 427.697 478.084 427.574C475.757 426.076 476.498 426.919 475.324 424.346L474.109 424.368L473.605 423.329C478.982 423.366 480.448 423.167 484.578 419.833Z"/><path fill="#7C983D" transform="scale(0.979167 0.979167)" d="M513.801 386.534C521.517 385.322 530.536 385.775 538.391 384.842C532.39 388.17 526.983 390.894 520.385 392.936L517.139 391.427L517.834 390.776C516.655 390.202 516.087 390.397 514.669 390.397C515.875 389.794 515.533 390.25 516.062 389.265L513.801 386.534Z"/></svg>